<mxfile host="app.diagrams.net" agent="Mozilla/5.0 (X11; Linux x86_64) AppleWebKit/537.36 (KHTML, like Gecko) Chrome/131.0.0.0 Safari/537.36" version="26.2.13">
  <diagram name="第 1 页" id="Ij3hYy0A9Onxn7mse7Ey">
    <mxGraphModel dx="1038" dy="618" grid="1" gridSize="10" guides="1" tooltips="1" connect="1" arrows="1" fold="1" page="1" pageScale="1" pageWidth="827" pageHeight="1169" math="0" shadow="0">
      <root>
        <mxCell id="0" />
        <mxCell id="1" parent="0" />
        <mxCell id="GwQLMRFdxqnJ7ulJmC02-1" value="" style="rounded=0;whiteSpace=wrap;html=1;" parent="1" vertex="1">
          <mxGeometry x="70" y="80" width="440" height="60" as="geometry" />
        </mxCell>
        <mxCell id="GwQLMRFdxqnJ7ulJmC02-16" value="" style="group" parent="1" vertex="1" connectable="0">
          <mxGeometry x="310" y="110" width="200" height="30" as="geometry" />
        </mxCell>
        <mxCell id="GwQLMRFdxqnJ7ulJmC02-12" value="PON1" style="rounded=0;whiteSpace=wrap;html=1;" parent="GwQLMRFdxqnJ7ulJmC02-16" vertex="1">
          <mxGeometry width="50" height="30" as="geometry" />
        </mxCell>
        <mxCell id="GwQLMRFdxqnJ7ulJmC02-13" value="PON2" style="rounded=0;whiteSpace=wrap;html=1;" parent="GwQLMRFdxqnJ7ulJmC02-16" vertex="1">
          <mxGeometry x="50" width="50" height="30" as="geometry" />
        </mxCell>
        <mxCell id="GwQLMRFdxqnJ7ulJmC02-14" value="PON3" style="rounded=0;whiteSpace=wrap;html=1;" parent="GwQLMRFdxqnJ7ulJmC02-16" vertex="1">
          <mxGeometry x="100" width="50" height="30" as="geometry" />
        </mxCell>
        <mxCell id="GwQLMRFdxqnJ7ulJmC02-15" value="PON4" style="rounded=0;whiteSpace=wrap;html=1;" parent="GwQLMRFdxqnJ7ulJmC02-16" vertex="1">
          <mxGeometry x="150" width="50" height="30" as="geometry" />
        </mxCell>
        <mxCell id="GwQLMRFdxqnJ7ulJmC02-22" value="" style="group" parent="1" vertex="1" connectable="0">
          <mxGeometry x="70" y="110" width="200" height="30" as="geometry" />
        </mxCell>
        <mxCell id="GwQLMRFdxqnJ7ulJmC02-20" style="edgeStyle=orthogonalEdgeStyle;rounded=0;orthogonalLoop=1;jettySize=auto;html=1;exitX=0.5;exitY=1;exitDx=0;exitDy=0;entryX=0.5;entryY=1;entryDx=0;entryDy=0;endArrow=none;startFill=0;curved=1;" parent="GwQLMRFdxqnJ7ulJmC02-22" source="GwQLMRFdxqnJ7ulJmC02-2" target="GwQLMRFdxqnJ7ulJmC02-3" edge="1">
          <mxGeometry relative="1" as="geometry" />
        </mxCell>
        <mxCell id="GwQLMRFdxqnJ7ulJmC02-2" value="LAN2" style="rounded=0;whiteSpace=wrap;html=1;" parent="GwQLMRFdxqnJ7ulJmC02-22" vertex="1">
          <mxGeometry width="50" height="30" as="geometry" />
        </mxCell>
        <mxCell id="GwQLMRFdxqnJ7ulJmC02-3" value="LAN4" style="rounded=0;whiteSpace=wrap;html=1;" parent="GwQLMRFdxqnJ7ulJmC02-22" vertex="1">
          <mxGeometry x="50" width="50" height="30" as="geometry" />
        </mxCell>
        <mxCell id="GwQLMRFdxqnJ7ulJmC02-6" value="LAN6" style="rounded=0;whiteSpace=wrap;html=1;" parent="GwQLMRFdxqnJ7ulJmC02-22" vertex="1">
          <mxGeometry x="100" width="50" height="30" as="geometry" />
        </mxCell>
        <mxCell id="GwQLMRFdxqnJ7ulJmC02-7" value="LAN8" style="rounded=0;whiteSpace=wrap;html=1;" parent="GwQLMRFdxqnJ7ulJmC02-22" vertex="1">
          <mxGeometry x="150" width="50" height="30" as="geometry" />
        </mxCell>
        <mxCell id="GwQLMRFdxqnJ7ulJmC02-23" value="拓扑1" style="text;html=1;align=center;verticalAlign=middle;whiteSpace=wrap;rounded=0;fontSize=14;fontStyle=1" parent="1" vertex="1">
          <mxGeometry x="70" y="40" width="60" height="30" as="geometry" />
        </mxCell>
        <mxCell id="GwQLMRFdxqnJ7ulJmC02-24" value="拓扑2" style="text;html=1;align=center;verticalAlign=middle;whiteSpace=wrap;rounded=0;fontSize=14;fontStyle=1" parent="1" vertex="1">
          <mxGeometry x="70" y="200" width="60" height="30" as="geometry" />
        </mxCell>
        <mxCell id="GwQLMRFdxqnJ7ulJmC02-25" value="" style="rounded=0;whiteSpace=wrap;html=1;" parent="1" vertex="1">
          <mxGeometry x="70" y="240" width="440" height="60" as="geometry" />
        </mxCell>
        <mxCell id="GwQLMRFdxqnJ7ulJmC02-26" value="" style="group" parent="1" vertex="1" connectable="0">
          <mxGeometry x="310" y="270" width="200" height="30" as="geometry" />
        </mxCell>
        <mxCell id="GwQLMRFdxqnJ7ulJmC02-27" value="PON1" style="rounded=0;whiteSpace=wrap;html=1;" parent="GwQLMRFdxqnJ7ulJmC02-26" vertex="1">
          <mxGeometry width="50" height="30" as="geometry" />
        </mxCell>
        <mxCell id="GwQLMRFdxqnJ7ulJmC02-28" value="PON2" style="rounded=0;whiteSpace=wrap;html=1;" parent="GwQLMRFdxqnJ7ulJmC02-26" vertex="1">
          <mxGeometry x="50" width="50" height="30" as="geometry" />
        </mxCell>
        <mxCell id="GwQLMRFdxqnJ7ulJmC02-29" value="PON3" style="rounded=0;whiteSpace=wrap;html=1;" parent="GwQLMRFdxqnJ7ulJmC02-26" vertex="1">
          <mxGeometry x="100" width="50" height="30" as="geometry" />
        </mxCell>
        <mxCell id="GwQLMRFdxqnJ7ulJmC02-30" value="PON4" style="rounded=0;whiteSpace=wrap;html=1;" parent="GwQLMRFdxqnJ7ulJmC02-26" vertex="1">
          <mxGeometry x="150" width="50" height="30" as="geometry" />
        </mxCell>
        <mxCell id="GwQLMRFdxqnJ7ulJmC02-31" value="" style="group" parent="1" vertex="1" connectable="0">
          <mxGeometry x="70" y="270" width="200" height="30" as="geometry" />
        </mxCell>
        <mxCell id="GwQLMRFdxqnJ7ulJmC02-33" value="LAN2" style="rounded=0;whiteSpace=wrap;html=1;" parent="GwQLMRFdxqnJ7ulJmC02-31" vertex="1">
          <mxGeometry width="50" height="30" as="geometry" />
        </mxCell>
        <mxCell id="GwQLMRFdxqnJ7ulJmC02-34" value="LAN4" style="rounded=0;whiteSpace=wrap;html=1;" parent="GwQLMRFdxqnJ7ulJmC02-31" vertex="1">
          <mxGeometry x="50" width="50" height="30" as="geometry" />
        </mxCell>
        <mxCell id="GwQLMRFdxqnJ7ulJmC02-35" value="LAN6" style="rounded=0;whiteSpace=wrap;html=1;" parent="GwQLMRFdxqnJ7ulJmC02-31" vertex="1">
          <mxGeometry x="100" width="50" height="30" as="geometry" />
        </mxCell>
        <mxCell id="GwQLMRFdxqnJ7ulJmC02-36" value="LAN8" style="rounded=0;whiteSpace=wrap;html=1;" parent="GwQLMRFdxqnJ7ulJmC02-31" vertex="1">
          <mxGeometry x="150" width="50" height="30" as="geometry" />
        </mxCell>
        <mxCell id="GwQLMRFdxqnJ7ulJmC02-37" value="" style="rounded=0;whiteSpace=wrap;html=1;" parent="1" vertex="1">
          <mxGeometry x="200" y="370" width="120" height="60" as="geometry" />
        </mxCell>
        <mxCell id="GwQLMRFdxqnJ7ulJmC02-46" style="edgeStyle=orthogonalEdgeStyle;rounded=0;orthogonalLoop=1;jettySize=auto;html=1;exitX=0.5;exitY=0;exitDx=0;exitDy=0;entryX=0.5;entryY=1;entryDx=0;entryDy=0;endArrow=none;startFill=0;curved=1;" parent="1" source="GwQLMRFdxqnJ7ulJmC02-38" target="GwQLMRFdxqnJ7ulJmC02-27" edge="1">
          <mxGeometry relative="1" as="geometry" />
        </mxCell>
        <mxCell id="GwQLMRFdxqnJ7ulJmC02-38" value="WAN" style="rounded=0;whiteSpace=wrap;html=1;" parent="1" vertex="1">
          <mxGeometry x="235" y="370" width="50" height="30" as="geometry" />
        </mxCell>
        <mxCell id="GwQLMRFdxqnJ7ulJmC02-47" style="edgeStyle=orthogonalEdgeStyle;rounded=0;orthogonalLoop=1;jettySize=auto;html=1;exitX=0.5;exitY=1;exitDx=0;exitDy=0;entryX=0.5;entryY=1;entryDx=0;entryDy=0;endArrow=none;startFill=0;curved=1;" parent="1" source="GwQLMRFdxqnJ7ulJmC02-44" target="GwQLMRFdxqnJ7ulJmC02-33" edge="1">
          <mxGeometry relative="1" as="geometry" />
        </mxCell>
        <mxCell id="GwQLMRFdxqnJ7ulJmC02-44" value="LAN2" style="rounded=0;whiteSpace=wrap;html=1;" parent="1" vertex="1">
          <mxGeometry x="235" y="400" width="50" height="30" as="geometry" />
        </mxCell>
        <mxCell id="GwQLMRFdxqnJ7ulJmC02-45" value="AP" style="text;html=1;align=center;verticalAlign=middle;whiteSpace=wrap;rounded=0;" parent="1" vertex="1">
          <mxGeometry x="320" y="385" width="60" height="30" as="geometry" />
        </mxCell>
        <mxCell id="GwQLMRFdxqnJ7ulJmC02-49" value="" style="rounded=0;whiteSpace=wrap;html=1;" parent="1" vertex="1">
          <mxGeometry x="80" y="555" width="440" height="60" as="geometry" />
        </mxCell>
        <mxCell id="GwQLMRFdxqnJ7ulJmC02-50" value="" style="group" parent="1" vertex="1" connectable="0">
          <mxGeometry x="320" y="585" width="200" height="30" as="geometry" />
        </mxCell>
        <mxCell id="GwQLMRFdxqnJ7ulJmC02-51" value="PON1" style="rounded=0;whiteSpace=wrap;html=1;" parent="GwQLMRFdxqnJ7ulJmC02-50" vertex="1">
          <mxGeometry width="50" height="30" as="geometry" />
        </mxCell>
        <mxCell id="GwQLMRFdxqnJ7ulJmC02-52" value="PON2" style="rounded=0;whiteSpace=wrap;html=1;" parent="GwQLMRFdxqnJ7ulJmC02-50" vertex="1">
          <mxGeometry x="50" width="50" height="30" as="geometry" />
        </mxCell>
        <mxCell id="GwQLMRFdxqnJ7ulJmC02-53" value="PON3" style="rounded=0;whiteSpace=wrap;html=1;" parent="GwQLMRFdxqnJ7ulJmC02-50" vertex="1">
          <mxGeometry x="100" width="50" height="30" as="geometry" />
        </mxCell>
        <mxCell id="GwQLMRFdxqnJ7ulJmC02-54" value="PON4" style="rounded=0;whiteSpace=wrap;html=1;" parent="GwQLMRFdxqnJ7ulJmC02-50" vertex="1">
          <mxGeometry x="150" width="50" height="30" as="geometry" />
        </mxCell>
        <mxCell id="GwQLMRFdxqnJ7ulJmC02-55" value="" style="group" parent="1" vertex="1" connectable="0">
          <mxGeometry x="80" y="585" width="200" height="30" as="geometry" />
        </mxCell>
        <mxCell id="GwQLMRFdxqnJ7ulJmC02-57" value="LAN2" style="rounded=0;whiteSpace=wrap;html=1;" parent="GwQLMRFdxqnJ7ulJmC02-55" vertex="1">
          <mxGeometry width="50" height="30" as="geometry" />
        </mxCell>
        <mxCell id="GwQLMRFdxqnJ7ulJmC02-58" value="LAN4" style="rounded=0;whiteSpace=wrap;html=1;" parent="GwQLMRFdxqnJ7ulJmC02-55" vertex="1">
          <mxGeometry x="50" width="50" height="30" as="geometry" />
        </mxCell>
        <mxCell id="GwQLMRFdxqnJ7ulJmC02-59" value="LAN6" style="rounded=0;whiteSpace=wrap;html=1;" parent="GwQLMRFdxqnJ7ulJmC02-55" vertex="1">
          <mxGeometry x="100" width="50" height="30" as="geometry" />
        </mxCell>
        <mxCell id="GwQLMRFdxqnJ7ulJmC02-60" value="LAN8" style="rounded=0;whiteSpace=wrap;html=1;" parent="GwQLMRFdxqnJ7ulJmC02-55" vertex="1">
          <mxGeometry x="150" width="50" height="30" as="geometry" />
        </mxCell>
        <mxCell id="GwQLMRFdxqnJ7ulJmC02-61" value="拓扑3" style="text;html=1;align=center;verticalAlign=middle;whiteSpace=wrap;rounded=0;fontSize=14;fontStyle=1" parent="1" vertex="1">
          <mxGeometry x="80" y="525" width="60" height="30" as="geometry" />
        </mxCell>
        <mxCell id="GwQLMRFdxqnJ7ulJmC02-62" value="上级设备" style="text;html=1;align=center;verticalAlign=middle;whiteSpace=wrap;rounded=0;" parent="1" vertex="1">
          <mxGeometry x="260" y="615" width="60" height="30" as="geometry" />
        </mxCell>
        <mxCell id="GwQLMRFdxqnJ7ulJmC02-63" value="" style="rounded=0;whiteSpace=wrap;html=1;" parent="1" vertex="1">
          <mxGeometry x="230" y="660" width="440" height="60" as="geometry" />
        </mxCell>
        <mxCell id="GwQLMRFdxqnJ7ulJmC02-64" value="" style="group" parent="1" vertex="1" connectable="0">
          <mxGeometry x="470" y="690" width="200" height="30" as="geometry" />
        </mxCell>
        <mxCell id="GwQLMRFdxqnJ7ulJmC02-65" value="PON1" style="rounded=0;whiteSpace=wrap;html=1;" parent="GwQLMRFdxqnJ7ulJmC02-64" vertex="1">
          <mxGeometry width="50" height="30" as="geometry" />
        </mxCell>
        <mxCell id="GwQLMRFdxqnJ7ulJmC02-66" value="PON2" style="rounded=0;whiteSpace=wrap;html=1;" parent="GwQLMRFdxqnJ7ulJmC02-64" vertex="1">
          <mxGeometry x="50" width="50" height="30" as="geometry" />
        </mxCell>
        <mxCell id="GwQLMRFdxqnJ7ulJmC02-67" value="PON3" style="rounded=0;whiteSpace=wrap;html=1;" parent="GwQLMRFdxqnJ7ulJmC02-64" vertex="1">
          <mxGeometry x="100" width="50" height="30" as="geometry" />
        </mxCell>
        <mxCell id="GwQLMRFdxqnJ7ulJmC02-68" value="PON4" style="rounded=0;whiteSpace=wrap;html=1;" parent="GwQLMRFdxqnJ7ulJmC02-64" vertex="1">
          <mxGeometry x="150" width="50" height="30" as="geometry" />
        </mxCell>
        <mxCell id="GwQLMRFdxqnJ7ulJmC02-69" value="" style="group" parent="1" vertex="1" connectable="0">
          <mxGeometry x="230" y="690" width="200" height="30" as="geometry" />
        </mxCell>
        <mxCell id="GwQLMRFdxqnJ7ulJmC02-70" value="LAN2" style="rounded=0;whiteSpace=wrap;html=1;" parent="GwQLMRFdxqnJ7ulJmC02-69" vertex="1">
          <mxGeometry width="50" height="30" as="geometry" />
        </mxCell>
        <mxCell id="GwQLMRFdxqnJ7ulJmC02-71" value="LAN4" style="rounded=0;whiteSpace=wrap;html=1;" parent="GwQLMRFdxqnJ7ulJmC02-69" vertex="1">
          <mxGeometry x="50" width="50" height="30" as="geometry" />
        </mxCell>
        <mxCell id="GwQLMRFdxqnJ7ulJmC02-72" value="LAN6" style="rounded=0;whiteSpace=wrap;html=1;" parent="GwQLMRFdxqnJ7ulJmC02-69" vertex="1">
          <mxGeometry x="100" width="50" height="30" as="geometry" />
        </mxCell>
        <mxCell id="GwQLMRFdxqnJ7ulJmC02-73" value="LAN8" style="rounded=0;whiteSpace=wrap;html=1;" parent="GwQLMRFdxqnJ7ulJmC02-69" vertex="1">
          <mxGeometry x="150" width="50" height="30" as="geometry" />
        </mxCell>
        <mxCell id="GwQLMRFdxqnJ7ulJmC02-74" value="下级设备" style="text;html=1;align=center;verticalAlign=middle;whiteSpace=wrap;rounded=0;" parent="1" vertex="1">
          <mxGeometry x="414" y="720" width="60" height="30" as="geometry" />
        </mxCell>
        <mxCell id="GwQLMRFdxqnJ7ulJmC02-75" style="edgeStyle=orthogonalEdgeStyle;rounded=0;orthogonalLoop=1;jettySize=auto;html=1;exitX=0.5;exitY=1;exitDx=0;exitDy=0;entryX=0.5;entryY=1;entryDx=0;entryDy=0;endArrow=none;startFill=0;curved=1;" parent="1" source="GwQLMRFdxqnJ7ulJmC02-57" target="GwQLMRFdxqnJ7ulJmC02-70" edge="1">
          <mxGeometry relative="1" as="geometry">
            <Array as="points">
              <mxPoint x="105" y="760" />
              <mxPoint x="255" y="760" />
            </Array>
          </mxGeometry>
        </mxCell>
        <mxCell id="-hA-w6Yoop_2Hy_WFXz5-1" value="拓扑4" style="text;html=1;align=center;verticalAlign=middle;whiteSpace=wrap;rounded=0;fontSize=14;fontStyle=1" vertex="1" parent="1">
          <mxGeometry x="80" y="830" width="60" height="30" as="geometry" />
        </mxCell>
        <mxCell id="-hA-w6Yoop_2Hy_WFXz5-4" style="edgeStyle=orthogonalEdgeStyle;rounded=0;orthogonalLoop=1;jettySize=auto;html=1;exitX=1;exitY=0.5;exitDx=0;exitDy=0;entryX=0;entryY=0.5;entryDx=0;entryDy=0;curved=1;endArrow=none;startFill=0;" edge="1" parent="1" source="-hA-w6Yoop_2Hy_WFXz5-2" target="-hA-w6Yoop_2Hy_WFXz5-3">
          <mxGeometry relative="1" as="geometry" />
        </mxCell>
        <mxCell id="-hA-w6Yoop_2Hy_WFXz5-2" value="" style="ellipse;whiteSpace=wrap;html=1;aspect=fixed;" vertex="1" parent="1">
          <mxGeometry x="92.5" y="870" width="30" height="30" as="geometry" />
        </mxCell>
        <mxCell id="-hA-w6Yoop_2Hy_WFXz5-3" value="" style="ellipse;whiteSpace=wrap;html=1;aspect=fixed;" vertex="1" parent="1">
          <mxGeometry x="192.5" y="870" width="30" height="30" as="geometry" />
        </mxCell>
        <mxCell id="-hA-w6Yoop_2Hy_WFXz5-5" style="edgeStyle=orthogonalEdgeStyle;rounded=0;orthogonalLoop=1;jettySize=auto;html=1;exitX=1;exitY=0;exitDx=0;exitDy=0;entryX=0.5;entryY=1;entryDx=0;entryDy=0;curved=1;endArrow=none;startFill=0;" edge="1" parent="1" source="-hA-w6Yoop_2Hy_WFXz5-3" target="-hA-w6Yoop_2Hy_WFXz5-3">
          <mxGeometry relative="1" as="geometry">
            <Array as="points">
              <mxPoint x="247.5" y="874" />
              <mxPoint x="247.5" y="900" />
            </Array>
          </mxGeometry>
        </mxCell>
      </root>
    </mxGraphModel>
  </diagram>
</mxfile>
